<svg xmlns="http://www.w3.org/2000/svg" viewBox="0 0 606 402"><defs><style>.cls-1{fill:#f7931e;}.cls-2{fill:#1a1a1a;opacity:0.58;}.cls-3{fill:#fbb03b;}.cls-4{fill:#0071bc;}.cls-5{fill:#29abe2;}.cls-6,.cls-7{fill:#fff;}.cls-7{font-size:72px;font-family:FranklinGothic-Heavy, Franklin Gothic Heavy;}</style></defs><title>fish 3.0</title><g id="Слой_2" data-name="Слой 2"><circle class="cls-1" cx="312.0024" cy="54.1885" r="7" transform="translate(-4.6637 56.3062) rotate(-10.236)"/><circle class="cls-1" cx="342.0031" cy="30.1894" r="7" transform="translate(0.0785 61.2555) rotate(-10.236)"/><circle class="cls-1" cx="376.0083" cy="42.1852" r="7" transform="translate(-1.512 67.4892) rotate(-10.236)"/><ellipse class="cls-2" cx="472.5" cy="134" rx="10.5" ry="10"/><path class="cls-3" d="M330.0876,90.6694c12.8589-5.0718,29.1913-7.7717,41.9124-7.06l.218-32.5569L359.0561,62.5745l-16.2516-22.47-7.3664,26.7345-17.3447-6.0135Z"/><path class="cls-4" d="M126,147c0,31.72-25.54,57.87-58.5,61.55,29.835-40.8138,31.4983-81.835,0-123.1C100.46,89.13,126,115.28,126,147Z"/><path class="cls-5" d="M491.04,176.86C479.81,194.23,460.56,213.34,429,218l-21,43s-14-43-37-43-102-9-102-9-64.99,69.99-102.99,83.99c1.26-1.1,98.71-87.03,55.99-92.99-10.03-1.4-21.16-3.67-32.31-6.34L365,133l-66,51,89,3s13-29,11-35l26-4,17,38,5-17,11,18,1-24S477.47,178.33,491.04,176.86Z"/><path class="cls-4" d="M505,146a110.3951,110.3951,0,0,1-13.96,30.86C477.47,178.33,459,163,459,163l-1,24-11-18-5,17-17-38-26,4c2,6-11,35-11,35l-89-3,66-51L189.69,193.66C153.03,184.93,116,172,116,172c4.06.41,7-37,4-39.5,0,0,101,27.5,146-19.5,0,0-7-59-81-71l28-10,92,69s20-24,73-18c0,0,25.09-36.24,20.62-51.39L420,87s32,2,80,34c0,0-27,29-25,41Z"/><ellipse class="cls-6" cx="468.5" cy="128" rx="10.5" ry="10"/><circle class="cls-4" cx="469.0031" cy="128.1894" r="7" transform="translate(-15.3151 85.3835) rotate(-10.236)"/></g><g id="Слой_1" data-name="Слой 1"><text class="cls-7" transform="translate(85.0566 352.0234)">KING FISHING</text></g></svg>