<svg id="Слой_2" data-name="Слой 2" xmlns="http://www.w3.org/2000/svg" viewBox="0 0 606 402"><defs><style>.cls-1{fill:#f7931e;}.cls-2{fill:#1a1a1a;opacity:0.58;}.cls-3{fill:#fbb03b;}.cls-4{fill:#0071bc;}.cls-5{fill:#29abe2;}.cls-6{fill:#fff;}</style></defs><title>logo</title><circle class="cls-1" cx="322.0024" cy="109.1883" r="7" transform="translate(-14.2781 58.9586) rotate(-10.236)"/><circle class="cls-1" cx="352.0031" cy="85.1892" r="7" transform="translate(-9.5359 63.9079) rotate(-10.236)"/><circle class="cls-1" cx="386.0083" cy="97.1851" r="7" transform="translate(-11.1264 70.1416) rotate(-10.236)"/><ellipse class="cls-2" cx="482.5" cy="188.9998" rx="10.5" ry="10"/><path class="cls-3" d="M340.0876,145.6692c12.8589-5.0718,29.1913-7.7717,41.9124-7.06l.218-32.5569-13.1619,11.5223-16.2516-22.47-7.3664,26.7345-17.3447-6.0135Z"/><path class="cls-4" d="M136,202c0,31.72-25.54,57.87-58.5,61.55,29.835-40.8138,31.4983-81.835,0-123.1C110.46,144.13,136,170.28,136,202Z"/><path class="cls-5" d="M501.04,231.86C489.81,249.23,470.56,268.34,439,273l-21,43s-14-43-37-43-102-9-102-9-64.99,69.99-102.99,83.99c1.26-1.1,98.71-87.03,55.99-92.99-10.03-1.4-21.16-3.67-32.31-6.34L375,188l-66,51,89,3s13-29,11-35l26-4,17,38,5-17,11,18,1-24S487.47,233.33,501.04,231.86Z"/><path class="cls-4" d="M515,201a110.3951,110.3951,0,0,1-13.96,30.86C487.47,233.33,469,218,469,218l-1,24-11-18-5,17-17-38-26,4c2,6-11,35-11,35l-89-3,66-51L199.69,248.66C163.03,239.93,126,227,126,227c4.06.41,7-37,4-39.5,0,0,101,27.5,146-19.5,0,0-7-59-81-71l28-10,92,69s20-24,73-18c0,0,25.09-36.24,20.62-51.39L430,142s32,2,80,34c0,0-27,29-25,41Z"/><ellipse class="cls-6" cx="478.5" cy="182.9998" rx="10.5" ry="10"/><circle class="cls-4" cx="479.0031" cy="183.1892" r="7" transform="translate(-24.9295 88.0359) rotate(-10.236)"/></svg>